<?xml version="1.0" encoding="utf-8"?>
<!-- Generator: Adobe Illustrator 15.1.0, SVG Export Plug-In . SVG Version: 6.00 Build 0)  -->
<!DOCTYPE svg PUBLIC "-//W3C//DTD SVG 1.1//EN" "http://www.w3.org/Graphics/SVG/1.1/DTD/svg11.dtd">
<svg version="1.1" id="Layer_1" xmlns="http://www.w3.org/2000/svg" xmlns:xlink="http://www.w3.org/1999/xlink" x="0px" y="0px"
	 width="980px" height="1400px" viewBox="-1152.136 -510.9 980 1400" enable-background="new -1152.136 -510.9 980 1400"
	 xml:space="preserve">
<g>
	<rect x="-1152.136" y="-510.9" fill="#25813F" width="980" height="1400"/>
</g>
<g>
	<g>
		<rect x="-1019.036" y="-409.7" fill="#39B54A" width="713.801" height="66.399"/>
	</g>
	<g>
		<rect x="-1019.036" y="-343.101" fill="#009444" width="713.801" height="66.4"/>
	</g>
	<g>
		<rect x="-1019.036" y="-276.601" fill="#39B54A" width="713.801" height="66.4"/>
	</g>
	<g>
		<rect x="-1019.036" y="-210.101" fill="#009444" width="713.801" height="66.399"/>
	</g>
	<g>
		<rect x="-1019.036" y="-143.501" fill="#39B54A" width="713.801" height="66.4"/>
	</g>
	<g>
		<rect x="-1019.036" y="-77.001" fill="#009444" width="713.801" height="66.4"/>
	</g>
	<g>
		<rect x="-1019.036" y="-10.501" fill="#39B54A" width="713.801" height="66.4"/>
	</g>
	<g>
		<rect x="-1019.036" y="56.1" fill="#009444" width="713.801" height="66.399"/>
	</g>
	<g>
		<rect x="-1019.036" y="122.6" fill="#39B54A" width="713.801" height="66.399"/>
	</g>
	<g>
		<rect x="-1019.036" y="189.1" fill="#009444" width="713.801" height="66.399"/>
	</g>
	<g>
		<rect x="-1019.036" y="255.699" fill="#39B54A" width="713.801" height="66.4"/>
	</g>
	<g>
		<rect x="-1019.036" y="322.199" fill="#009444" width="713.801" height="66.4"/>
	</g>
	<g>
		<rect x="-1019.036" y="388.699" fill="#39B54A" width="713.801" height="66.4"/>
	</g>
	<g>
		<rect x="-1019.036" y="455.299" fill="#009444" width="713.801" height="66.4"/>
	</g>
	<g>
		<rect x="-1019.036" y="521.799" fill="#39B54A" width="713.801" height="66.4"/>
	</g>
	<g>
		<rect x="-1019.036" y="588.299" fill="#009444" width="713.801" height="66.4"/>
	</g>
	<g>
		<rect x="-1019.036" y="654.899" fill="#39B54A" width="713.801" height="66.399"/>
	</g>
	<g>
		<rect x="-1019.036" y="721.399" fill="#009444" width="713.801" height="66.399"/>
	</g>
</g>
<g>
	<path fill="#FFFFFF" d="M-598.136,839.1v-45.2h21.4h99h119.3h59.2v-52.9V735.1l0,0v-1091.9V-415.7h-59.2h-119.3h-99h-21.4v-45.2
		h-128v45.2h-21.4h-99h-119.3h-59.2v52.899v6l0,0v1091.8v58.9h59.2h119.3h99h21.4v45.2H-598.136z M-311.236,781.899h-34.7
		c2.6-17.9,16.899-32,34.7-34.5V781.899z M-771.436,183.1c3.1-57.601,51-103.5,109.3-103.5c58.4,0,106.2,45.899,109.3,103.5
		H-771.436z M-552.836,195.1c-3.1,57.6-51,103.5-109.3,103.5c-58.4,0-106.2-45.9-109.3-103.5H-552.836z M-311.236-403.7v34.5
		c-17.9-2.5-32.101-16.601-34.7-34.5H-311.236z M-714.136-448.9h104v33.2h-104V-448.9z M-598.136-403.7h9.4v64.899h-146.801V-403.7
		h9.4H-598.136z M-747.536-326.801h170.801V-403.7h87v156.399h-66.5h-211.801h-66.5V-403.7h87V-326.801z M-580.236-235.301
		c-20.7,23.2-50.5,36.8-81.9,36.8s-61.2-13.6-81.9-36.8H-580.236z M-846.536-235.301h87c22.9,30.601,59.101,48.8,97.4,48.8
		s74.5-18.199,97.4-48.8h87V-403.7h119.699c2.801,24.5,22.301,44,46.801,46.6v540.2h-229.5c-3.2-64.2-56.4-115.5-121.4-115.5
		s-118.2,51.3-121.3,115.5h-229.5v-540.2c24.5-2.6,44.1-22.1,46.8-46.6h119.6V-235.301z M-1013.036-403.7h34.7
		c-2.6,17.899-16.8,32-34.7,34.5V-403.7z M-1013.036,781.899v-34.5c17.9,2.5,32.101,16.6,34.7,34.5H-1013.036z M-966.236,781.899
		c-2.801-24.5-22.301-44-46.801-46.601V195.1h229.601c3.1,64.199,56.399,115.5,121.3,115.5s118.2-51.301,121.3-115.5h229.601
		v540.199c-24.5,2.601-44.101,22.101-46.801,46.601h-119.699v-168.4h-87c-22.9-30.6-59.101-48.8-97.4-48.8s-74.5,18.199-97.4,48.8
		h-87v168.4H-966.236L-966.236,781.899z M-744.036,613.499c20.7-23.2,50.5-36.8,81.9-36.8s61.2,13.6,81.9,36.8H-744.036z
		 M-834.536,781.899v-156.4h66.5h211.801h66.5v156.4h-87v-76.9h-170.801v76.9H-834.536z M-735.536,781.899v-64.9h146.801v64.9h-9.4
		l0,0h-128l0,0H-735.536z M-714.136,827.1v-33.2h104v33.2H-714.136z"/>
	<circle fill="#FFFFFF" cx="-662.136" cy="-296.001" r="7.2"/>
	<circle fill="#FFFFFF" cx="-662.136" cy="674.199" r="7.2"/>
</g>
</svg>
